<svg id="Layer_1" data-name="Layer 1" xmlns="http://www.w3.org/2000/svg" viewBox="0 0 510.13 93.94"><defs><style>.cls-1{fill:#fe772d;}</style></defs><title>logo</title><g id="_Group_" data-name="&lt;Group&gt;"><g id="_Group_2" data-name="&lt;Group&gt;"><g id="_Group_3" data-name="&lt;Group&gt;"><polygon id="_Path_" data-name="&lt;Path&gt;" class="cls-1" points="219.25 27.63 208.19 27.63 208.19 19.34 188.85 38.68 197.14 38.68 197.14 88.42 202.67 93.94 208.19 88.42 216.48 80.13 213.72 77.36 208.19 82.89 208.19 38.68 219.25 27.63"/></g></g><g id="_Group_4" data-name="&lt;Group&gt;"><g id="_Group_5" data-name="&lt;Group&gt;"><polygon id="_Path_2" data-name="&lt;Path&gt;" class="cls-1" points="399.68 19.34 399.68 19.34 399.68 8.29 388.62 19.34 388.62 30.39 380.33 38.68 388.62 38.68 388.62 88.42 394.15 93.94 399.68 88.42 399.68 38.68 410.73 27.63 399.68 27.63 399.68 19.34"/></g><g id="_Group_6" data-name="&lt;Group&gt;"><rect id="_Path_3" data-name="&lt;Path&gt;" class="cls-1" x="547.08" y="255.79" width="11.72" height="11.72" transform="translate(-168.04 214.26) rotate(-45)"/></g></g><g id="_Group_7" data-name="&lt;Group&gt;"><g id="_Group_8" data-name="&lt;Group&gt;"><polygon id="_Path_4" data-name="&lt;Path&gt;" class="cls-1" points="276.32 35.92 276.32 27.63 276.32 13.81 268.03 5.53 259.74 13.81 265.27 19.34 265.27 82.89 276.32 93.94 284.61 85.65 276.32 77.36 276.32 35.92"/></g><g id="_Group_9" data-name="&lt;Group&gt;"><polygon id="_Path_5" data-name="&lt;Path&gt;" class="cls-1" points="276.32 35.92 284.61 44.21 284.61 85.65 295.66 74.6 295.66 38.68 284.61 27.63 276.32 35.92"/></g></g><g id="_Group_10" data-name="&lt;Group&gt;"><g id="_Group_11" data-name="&lt;Group&gt;"><polygon id="_Path_6" data-name="&lt;Path&gt;" class="cls-1" points="58.06 82.33 52.26 76.52 52.26 67.81 52.26 24.27 52.26 12.65 52.26 9.75 43.55 1.04 34.84 9.75 40.64 15.56 40.64 30 26.2 44.45 26.2 24.27 26.2 9.75 17.49 1.04 17.45 1.08 17.42 1.04 0 18.46 2.98 21.43 11.68 12.73 14.59 15.63 14.59 88.14 20.39 93.94 26.2 88.14 26.2 56.95 40.64 42.51 40.64 67.81 40.64 82.33 52.26 93.94 58.06 88.14 60.97 85.23 66.77 79.43 63.87 76.52 58.06 82.33"/></g></g><g id="_Group_12" data-name="&lt;Group&gt;"><g id="_Group_13" data-name="&lt;Group&gt;"><polygon id="_Path_7" data-name="&lt;Path&gt;" class="cls-1" points="499.08 82.89 499.08 38.68 510.13 27.63 499.08 27.63 499.08 19.34 479.74 38.68 488.03 38.68 488.03 88.42 493.55 93.94 499.08 88.42 507.37 80.13 504.61 77.36 499.08 82.89"/></g></g><g id="_Group_14" data-name="&lt;Group&gt;"><g id="_Group_15" data-name="&lt;Group&gt;"><polygon id="_Path_8" data-name="&lt;Path&gt;" class="cls-1" points="234.89 35.92 223.84 46.97 223.84 82.89 234.89 93.94 243.18 85.65 234.89 77.36 234.89 35.92"/></g><g id="_Group_16" data-name="&lt;Group&gt;"><polygon id="_Path_9" data-name="&lt;Path&gt;" class="cls-1" points="234.89 35.92 243.18 44.21 243.18 85.65 254.23 74.6 254.23 38.68 243.18 27.63 234.89 35.92"/></g></g><g id="_Group_17" data-name="&lt;Group&gt;"><g id="_Group_18" data-name="&lt;Group&gt;"><g id="_Group_19" data-name="&lt;Group&gt;"><path id="_Path_10" data-name="&lt;Path&gt;" class="cls-1" d="M481.07,292" transform="translate(-144.98 -253.37)"/></g><g id="_Group_20" data-name="&lt;Group&gt;"><polygon id="_Path_11" data-name="&lt;Path&gt;" class="cls-1" points="336.09 38.61 325.11 27.63 316.82 35.92 325.04 44.14 316.82 52.36 316.82 35.92 305.77 46.97 305.77 82.89 316.82 93.94 322.34 88.42 325.11 85.65 333.4 77.36 330.63 74.6 322.34 82.89 316.82 77.36 316.82 57.89 336.09 38.61"/></g></g></g><g id="_Group_21" data-name="&lt;Group&gt;"><g id="_Group_22" data-name="&lt;Group&gt;"><polygon id="_Path_12" data-name="&lt;Path&gt;" class="cls-1" points="83.84 35.92 72.79 46.97 72.79 82.89 83.84 93.94 92.13 85.65 83.84 77.36 83.84 35.92"/></g><g id="_Group_23" data-name="&lt;Group&gt;"><polygon id="_Path_13" data-name="&lt;Path&gt;" class="cls-1" points="103.18 38.68 92.13 27.63 83.84 35.92 92.13 44.21 92.13 85.65 100.42 93.94 108.71 85.65 103.18 80.13 103.18 38.68"/></g></g><g id="_Group_24" data-name="&lt;Group&gt;"><g id="_Group_25" data-name="&lt;Group&gt;"><polygon id="_Path_14" data-name="&lt;Path&gt;" class="cls-1" points="132.71 82.89 127.18 77.36 127.18 35.92 116.13 46.97 116.13 82.89 127.18 93.94 132.71 88.42 135.47 85.65 143.76 77.36 141 74.6 132.71 82.89"/></g><g id="_Group_26" data-name="&lt;Group&gt;"><rect id="_Path_15" data-name="&lt;Path&gt;" class="cls-1" x="274.59" y="283.35" width="11.72" height="11.72" transform="translate(-267.34 29.65) rotate(-45)"/></g></g><g id="_Group_27" data-name="&lt;Group&gt;"><g id="_Group_28" data-name="&lt;Group&gt;"><rect id="_Path_16" data-name="&lt;Path&gt;" class="cls-1" x="311.41" y="283.42" width="11.72" height="11.72" transform="translate(-256.61 55.71) rotate(-45)"/></g><g id="_Group_29" data-name="&lt;Group&gt;"><polygon id="_Path_17" data-name="&lt;Path&gt;" class="cls-1" points="169.53 58.02 169.53 88.42 175.05 93.94 180.58 88.42 180.58 52.5 172.29 44.21 164 52.5 169.53 58.02"/></g><g id="_Group_30" data-name="&lt;Group&gt;"><polygon id="_Path_18" data-name="&lt;Path&gt;" class="cls-1" points="164 27.63 164 13.81 155.71 5.53 147.42 13.81 152.95 19.34 152.95 88.42 158.48 93.94 164 88.42 164 52.5 164 35.92 164 27.63"/></g></g><g id="_Group_31" data-name="&lt;Group&gt;"><g id="_Group_32" data-name="&lt;Group&gt;"><g id="_Group_33" data-name="&lt;Group&gt;"><polygon id="_Path_19" data-name="&lt;Path&gt;" class="cls-1" points="425.43 35.92 433.65 44.14 425.43 52.36 425.43 35.92 414.38 46.97 414.38 82.89 425.43 93.94 430.95 88.42 433.72 85.65 442 77.36 439.24 74.6 430.95 82.89 425.43 77.36 425.43 57.89 444.7 38.61 433.72 27.63 425.43 35.92"/></g></g></g><g id="_Group_34" data-name="&lt;Group&gt;"><g id="_Group_35" data-name="&lt;Group&gt;"><rect id="_Path_20" data-name="&lt;Path&gt;" class="cls-1" x="505.65" y="283.42" width="11.72" height="11.72" transform="translate(-199.71 193.06) rotate(-45)"/></g><g id="_Group_36" data-name="&lt;Group&gt;"><polygon id="_Path_21" data-name="&lt;Path&gt;" class="cls-1" points="341.67 35.92 347.19 41.45 347.19 49.73 347.19 58.02 347.19 88.42 352.72 93.94 358.25 88.42 358.25 58.02 358.25 49.73 358.25 35.92 349.96 27.63 341.67 35.92"/></g></g><g id="_Group_37" data-name="&lt;Group&gt;"><g id="_Group_38" data-name="&lt;Group&gt;"><rect id="_Path_22" data-name="&lt;Path&gt;" class="cls-1" x="599.52" y="333.16" width="11.72" height="11.72" transform="translate(-207.39 273.99) rotate(-45)"/></g><g id="_Group_39" data-name="&lt;Group&gt;"><rect id="_Path_23" data-name="&lt;Path&gt;" class="cls-1" x="607.8" y="283.42" width="11.72" height="11.72" transform="translate(-169.8 265.29) rotate(-45)"/></g><g id="_Group_40" data-name="&lt;Group&gt;"><polygon id="_Path_24" data-name="&lt;Path&gt;" class="cls-1" points="452.11 44.21 452.11 55.26 468.69 71.84 468.69 85.65 476.98 77.36 476.98 63.55 475.6 62.17 468.69 55.26 460.4 46.97 460.4 35.92 452.11 44.21"/></g></g></g></svg>
